<svg xmlns="http://www.w3.org/2000/svg" viewBox="0 0 64 63.76"><defs><style>.cls-1{fill:#1877f2;}.cls-2{fill:#fff;}</style></defs><g id="Layer_2" data-name="Layer 2"><g id="main-visible-web"><g id="Icon_Link" data-name="Icon Link"><path class="cls-1" d="M64,32A32,32,0,1,0,27,63.61V41.25H18.88V32H27V25c0-8,4.78-12.45,12.09-12.45a49.54,49.54,0,0,1,7.16.62V21h-4c-4,0-5.21,2.47-5.21,5v6h8.88l-1.42,9.25H37V63.61A32,32,0,0,0,64,32Z"/><path class="cls-2" d="M44.46,41l1.42-9.25H37v-6c0-2.53,1.24-5,5.21-5h4V12.88a49.54,49.54,0,0,0-7.16-.62C31.78,12.26,27,16.69,27,24.71v7.05H18.88V41H27V63.37a32.25,32.25,0,0,0,10,0V41Z"/></g></g></g></svg>